<?xml version="1.0" standalone="no"?>
<!DOCTYPE svg PUBLIC "-//W3C//DTD SVG 20010904//EN"
 "http://www.w3.org/TR/2001/REC-SVG-20010904/DTD/svg10.dtd">
<svg version="1.0" xmlns="http://www.w3.org/2000/svg"
 width="383.000000pt" height="423.000000pt" viewBox="0 0 383.000000 423.000000"
 preserveAspectRatio="xMidYMid meet">

<g transform="translate(0.000000,423.000000) scale(0.100000,-0.100000)"
fill="#000000" stroke="none">
<path d="M429 4076 c-106 -28 -200 -112 -241 -215 l-23 -56 0 -1685 0 -1685
23 -57 c32 -80 99 -150 180 -190 l67 -33 1495 0 1495 0 55 26 c82 39 135 90
172 167 l33 67 0 1710 0 1710 -28 56 c-33 69 -99 132 -175 167 l-57 27 -1475
2 c-1148 1 -1485 -1 -1521 -11z m1754 -795 c218 -44 369 -140 462 -296 55 -92
77 -174 77 -285 1 -222 -93 -399 -303 -574 -197 -164 -256 -235 -283 -341 -25
-94 -27 -95 -242 -95 -177 0 -184 1 -210 23 l-27 24 12 79 c30 184 123 319
332 482 84 65 179 167 204 218 28 56 27 175 -2 229 -52 99 -126 140 -253 140
-99 0 -148 -13 -213 -56 -51 -34 -78 -71 -111 -156 -16 -43 -28 -59 -46 -64
-14 -4 -104 -7 -201 -8 -167 -1 -178 0 -204 21 -26 20 -27 25 -22 82 14 175
120 348 278 454 72 49 204 103 298 123 121 25 329 25 454 0z m-127 -1844 c100
-51 153 -152 140 -264 -12 -105 -52 -165 -141 -211 -72 -37 -197 -43 -278 -12
-109 41 -170 131 -170 252 0 121 62 209 178 251 75 26 203 19 271 -16z"/>
</g>
</svg>
