<?xml version="1.0" standalone="no"?>
<!DOCTYPE svg PUBLIC "-//W3C//DTD SVG 20010904//EN"
 "http://www.w3.org/TR/2001/REC-SVG-20010904/DTD/svg10.dtd">
<svg version="1.0" xmlns="http://www.w3.org/2000/svg"
 width="498.000000pt" height="381.000000pt" viewBox="0 0 498.000000 381.000000"
 preserveAspectRatio="xMidYMid meet">

<g transform="translate(0.000000,381.000000) scale(0.100000,-0.100000)"
fill="#000000" stroke="none">
<path d="M2345 3699 c-35 -5 -93 -25 -140 -48 -157 -78 -257 -213 -287 -390
l-12 -71 -83 0 -83 0 2 -432 3 -433 688 -3 687 -2 0 435 0 435 -430 0 -430 0
0 23 c0 13 13 44 29 69 45 70 119 92 216 63 18 -5 33 14 110 136 l89 141 -25
19 c-61 46 -223 74 -334 58z"/>
<path d="M1145 1974 c-111 -24 -197 -64 -272 -128 -56 -48 -118 -146 -145
-226 -20 -61 -22 -88 -26 -442 -4 -443 2 -519 53 -626 72 -152 228 -269 390
-292 97 -13 2489 -13 2575 0 215 34 398 221 431 438 7 46 9 215 7 465 l-3 392
-26 71 c-50 137 -135 236 -254 294 -128 63 -56 60 -1445 59 -696 -1 -1274 -3
-1285 -5z m473 -596 c8 -18 29 -5 84 49 l58 58 122 -123 123 -122 -58 -58
c-31 -32 -57 -62 -57 -67 0 -5 25 -35 57 -67 l56 -57 -117 -115 c-64 -64 -120
-116 -123 -116 -4 0 -33 26 -65 57 l-58 57 -58 -57 c-32 -31 -62 -57 -67 -57
-13 0 -235 222 -235 235 0 5 26 35 57 67 l57 58 -59 60 -60 60 120 120 120
120 50 -48 c27 -26 51 -50 53 -54z m822 47 c30 -30 59 -55 64 -55 6 0 35 25
66 55 l55 55 120 -120 119 -119 -59 -61 -58 -62 61 -61 62 -62 -118 -118 c-64
-64 -122 -117 -127 -117 -5 0 -35 26 -67 57 l-57 56 -56 -54 c-30 -30 -59 -55
-64 -57 -5 -2 -61 50 -126 114 l-116 117 55 56 c31 31 56 61 56 66 0 5 -26 35
-57 67 l-58 58 120 120 c66 66 122 120 125 120 3 0 30 -25 60 -55z m1198 -482
l2 -173 -260 0 -260 0 0 168 c0 93 3 172 7 176 4 3 119 5 257 4 l251 -3 3
-172z"/>
</g>
</svg>
