<?xml version="1.0" standalone="no"?>
<!DOCTYPE svg PUBLIC "-//W3C//DTD SVG 20010904//EN"
 "http://www.w3.org/TR/2001/REC-SVG-20010904/DTD/svg10.dtd">
<svg version="1.0" xmlns="http://www.w3.org/2000/svg"
 width="309.000000pt" height="450.000000pt" viewBox="0 0 309.000000 450.000000"
 preserveAspectRatio="xMidYMid meet">

<g transform="translate(0.000000,450.000000) scale(0.100000,-0.100000)"
fill="#000000" stroke="none">
<path d="M571 4253 c-42 -21 -113 -127 -187 -279 -118 -244 -132 -445 -42
-623 79 -156 266 -278 508 -331 l56 -12 23 -117 c26 -126 79 -303 117 -389 21
-49 24 -69 24 -187 l0 -132 166 -133 c92 -73 183 -142 202 -152 44 -22 129
-24 177 -4 19 8 111 76 205 152 l170 138 0 127 c0 119 2 131 30 193 37 84 83
239 114 384 13 63 26 115 28 117 1 1 48 15 103 30 260 69 427 206 488 399 29
94 28 236 -2 350 -26 97 -102 259 -174 369 -64 99 -101 122 -179 115 -85 -9
-142 -72 -142 -159 0 -39 9 -61 51 -131 112 -184 162 -325 147 -418 l-6 -38
-58 5 c-105 10 -212 -61 -227 -151 -6 -40 -7 -41 -118 -56 -110 -16 -1031 -8
-1096 9 -42 11 -47 15 -52 47 -14 88 -119 159 -224 152 l-57 -3 -7 35 c-9 43
4 125 31 197 26 70 40 97 108 212 46 78 56 102 56 141 0 53 -25 102 -66 133
-37 28 -122 33 -167 10z"/>
<path d="M1440 4156 c-114 -32 -199 -101 -251 -203 -32 -63 -34 -73 -34 -167
0 -91 3 -107 29 -161 38 -76 110 -149 184 -183 51 -24 68 -27 167 -27 101 0
114 2 164 28 72 38 141 109 177 182 26 54 29 70 29 160 0 88 -3 107 -27 157
-78 168 -269 261 -438 214z"/>
<path d="M1041 1807 c-18 -133 -51 -372 -72 -532 -22 -159 -52 -387 -69 -505
-53 -391 -56 -431 -36 -484 25 -65 61 -105 121 -132 87 -41 182 -29 252 31 57
49 79 101 97 235 8 63 34 252 56 420 22 168 52 390 67 494 25 183 25 189 7
203 -10 7 -24 37 -31 66 -32 122 -175 303 -344 434 -13 11 -19 -15 -48 -230z"/>
<path d="M1905 1982 c-140 -122 -254 -278 -277 -380 -7 -31 -20 -59 -31 -67
-19 -13 -19 -16 7 -202 25 -186 75 -557 117 -868 24 -177 41 -227 97 -276 66
-58 145 -74 236 -47 59 18 128 90 146 152 15 55 11 99 -40 476 -28 207 -77
568 -141 1040 -16 124 -31 229 -32 233 -1 5 -38 -23 -82 -61z"/>
</g>
</svg>
