<?xml version="1.0" standalone="no"?>
<!DOCTYPE svg PUBLIC "-//W3C//DTD SVG 20010904//EN"
 "http://www.w3.org/TR/2001/REC-SVG-20010904/DTD/svg10.dtd">
<svg version="1.0" xmlns="http://www.w3.org/2000/svg"
 width="500.000000pt" height="430.000000pt" viewBox="0 0 500.000000 430.000000"
 preserveAspectRatio="xMidYMid meet">

<g transform="translate(0.000000,430.000000) scale(0.100000,-0.100000)"
fill="#000000" stroke="none">
<path d="M3668 4215 c-81 -20 -172 -61 -240 -107 -66 -44 -597 -576 -641 -641
-47 -69 -84 -157 -102 -241 -25 -112 -17 -264 19 -369 14 -42 26 -82 26 -88 0
-6 -58 -69 -130 -142 -71 -72 -133 -139 -136 -150 -10 -31 5 -82 31 -107 19
-18 40 -25 84 -28 l59 -4 4 -61 c4 -52 9 -64 36 -88 38 -35 81 -38 126 -10 17
11 69 59 116 108 47 48 99 100 117 116 l32 28 83 -27 c61 -19 112 -28 189 -32
165 -7 294 27 426 115 78 51 599 572 648 647 84 130 121 270 112 434 -8 173
-75 326 -195 448 -140 143 -313 215 -511 213 -53 0 -122 -7 -153 -14z m322
-141 c88 -25 169 -74 240 -146 72 -72 118 -149 146 -243 24 -81 24 -229 0
-310 -39 -131 -64 -164 -346 -449 -147 -149 -296 -290 -334 -317 -95 -67 -197
-99 -317 -99 -85 0 -174 14 -192 30 -4 4 16 30 45 59 50 49 55 51 94 45 57 -8
148 11 219 46 50 24 108 77 346 317 162 163 298 308 313 334 15 26 33 80 42
120 58 280 -180 529 -467 489 -121 -17 -150 -39 -452 -339 -153 -152 -292
-295 -308 -319 -47 -67 -71 -146 -73 -239 l-1 -82 -50 -47 -49 -47 -15 34 c-8
20 -16 79 -19 142 -4 95 -1 117 22 190 17 56 42 106 75 153 62 88 560 582 624
618 140 82 302 103 457 60z m-20 -292 c135 -68 190 -254 111 -376 -10 -15
-140 -151 -289 -301 -259 -262 -323 -315 -374 -315 -14 0 -15 5 -2 48 33 106
-25 223 -131 268 -47 20 -140 23 -173 5 -19 -10 -22 -9 -22 6 0 10 9 36 21 58
23 43 544 573 596 606 72 45 174 45 263 1z m-736 -806 c42 -18 62 -67 46 -112
-10 -27 -476 -504 -492 -504 -5 0 -8 14 -8 31 0 45 -47 89 -97 89 l-38 0 235
236 c224 225 279 274 308 274 7 0 28 -6 46 -14z"/>
<path d="M2165 3251 c-11 -5 -63 -52 -115 -105 l-95 -96 -138 0 c-166 0 -195
-10 -227 -74 -17 -36 -20 -62 -20 -176 l0 -135 -102 -102 -102 -102 -4 -60
c-4 -58 -3 -62 29 -94 28 -28 65 -44 211 -92 154 -52 180 -58 202 -47 35 16
50 56 34 90 -11 23 -34 34 -163 77 -83 28 -157 53 -165 56 -11 4 11 32 80 103
52 53 100 107 107 119 8 14 12 70 13 160 l0 137 136 0 c79 0 144 5 157 11 12
6 66 54 119 107 54 53 99 94 102 91 2 -2 28 -76 57 -164 47 -138 58 -162 81
-173 34 -16 74 -1 90 34 11 22 5 48 -46 201 -70 211 -86 234 -167 239 -30 2
-63 0 -74 -5z"/>
<path d="M1930 2690 c-39 -39 -27 -68 68 -163 72 -71 93 -87 118 -87 38 0 64
27 64 66 0 23 -18 46 -87 116 -95 95 -124 107 -163 68z"/>
<path d="M2125 2147 c-11 -8 -69 -65 -130 -127 -60 -61 -118 -116 -128 -121
-13 -7 -34 -5 -75 9 -144 50 -320 54 -457 12 -143 -45 -201 -90 -506 -394
-155 -155 -298 -306 -319 -336 -188 -278 -152 -657 86 -894 95 -95 238 -172
365 -196 174 -33 376 8 527 107 57 37 546 518 614 603 60 75 106 170 129 265
29 124 23 274 -15 394 l-28 83 29 30 c15 17 69 71 119 120 112 110 132 142
118 195 -12 51 -60 83 -124 83 l-48 0 -4 60 c-3 48 -10 66 -30 86 -31 31 -94
42 -123 21z m15 -218 c0 -20 10 -40 29 -60 20 -19 40 -29 60 -29 17 0 31 -3
31 -8 0 -16 -477 -482 -503 -492 -71 -26 -143 45 -117 116 10 27 476 504 492
504 5 0 8 -14 8 -31z m-452 -134 c29 -9 52 -19 52 -23 0 -4 -20 -28 -45 -52
l-46 -45 -82 -1 c-93 -2 -172 -26 -239 -73 -24 -16 -167 -155 -319 -308 -302
-304 -321 -329 -338 -453 -38 -280 194 -512 469 -469 127 19 149 36 467 352
246 244 296 300 322 351 34 70 55 172 46 225 -5 34 -2 40 49 90 l54 54 16 -53
c40 -135 9 -330 -73 -455 -23 -35 -154 -173 -318 -335 -296 -293 -332 -320
-464 -355 -70 -19 -219 -19 -289 0 -138 37 -279 144 -347 266 -57 101 -76 185
-71 307 6 119 27 188 86 282 43 68 514 545 600 607 95 68 203 103 323 103 57
0 116 -6 147 -15z m-179 -287 c-18 -33 -15 -126 5 -173 45 -105 163 -163 269
-131 43 13 47 13 47 -2 -1 -55 -48 -110 -320 -379 -154 -153 -291 -283 -303
-290 -12 -7 -46 -17 -76 -24 -116 -24 -234 32 -294 140 -26 46 -30 64 -30 126
0 53 5 83 21 116 15 30 111 133 299 321 259 258 330 318 376 318 15 0 16 -3 6
-22z"/>
<path d="M3101 2142 c-25 -19 -31 -73 -12 -96 7 -8 83 -38 169 -66 86 -29 159
-54 161 -56 2 -2 -39 -48 -91 -101 -53 -54 -101 -108 -107 -120 -6 -13 -11
-76 -11 -157 l0 -136 -136 0 c-79 0 -144 -5 -157 -11 -12 -6 -66 -54 -119
-107 -54 -53 -99 -94 -101 -91 -3 2 -29 76 -58 164 -47 138 -58 162 -81 173
-34 16 -74 1 -90 -34 -11 -22 -5 -48 46 -201 63 -190 86 -229 146 -242 68 -14
96 0 204 107 l101 101 152 3 153 3 37 38 38 37 3 153 3 152 101 101 c107 108
121 136 107 204 -13 59 -52 83 -235 144 -93 31 -176 56 -185 56 -9 0 -27 -8
-38 -18z"/>
<path d="M2757 1862 c-36 -40 -23 -72 71 -165 94 -94 123 -106 162 -67 39 39
27 68 -67 162 -73 73 -93 88 -119 88 -17 0 -38 -8 -47 -18z"/>
</g>
</svg>
